<svg xmlns="http://www.w3.org/2000/svg" width="20" height="18" viewBox="0 0 20 18">
  <path fill="#071D8E" d="M26.8046296,11 C27.5561802,11 28.2524076,11.1364375 28.8918986,11.409633 C29.5308492,11.6825977 30.1237276,12.0974511 30.6672754,12.650094 C31.2280039,13.1945202 31.649326,13.8192285 31.9301327,14.5230274 C32.2098716,15.2241498 32.35,15.9360624 32.35,16.657684 C32.35,17.3793056 32.2098716,18.0912182 31.9301327,18.7923406 C31.6846251,19.4076677 31.3317352,19.9671724 30.8721874,20.4701594 L29.6080662,21.8094688 C29.0271029,22.4275227 28.403258,23.0966959 27.7365363,23.8169837 L25.7792639,25.9281928 L24.0390807,27.7839946 C23.8496687,27.9721767 23.6353259,28.1141439 23.3970365,28.2088408 C23.160653,28.3027802 22.9196159,28.35 22.675,28.35 C22.4179032,28.35 22.1731668,28.3027214 21.9420726,28.2081828 C21.7104568,28.1134309 21.499818,27.9716667 21.3053084,27.778156 L18.8705934,25.1170217 L16.3933836,22.396951 L14.6812897,20.5350768 C14.1214433,19.9788658 13.7006702,19.3518046 13.4200707,18.6548612 C13.1401662,17.9596439 13,17.247539 13,16.519697 C13,15.7918549 13.1401662,15.0797501 13.4200707,14.3845327 C13.7006702,13.6875894 14.1214433,13.0605282 14.6812897,12.5043171 C15.2173727,11.9717152 15.8098263,11.5867347 16.4577409,11.3509211 C17.1006771,11.1169194 17.7845143,11 18.5083333,11 C19.2719819,11 20.0297766,11.2434826 20.7791515,11.7270952 C21.3646928,12.104977 21.9123192,12.5227314 22.4219531,12.9803173 L22.672,13.214 L22.8517101,13.0395987 C23.159566,12.7508684 23.4869365,12.477785 23.8337898,12.2203553 L24.1871362,11.9681437 L24.5534642,11.7263694 C25.3146814,11.2433707 26.0656815,11 26.8046296,11 Z M26.8046296,12.5274892 C26.4205761,12.5274892 25.9457113,12.6895736 25.3838082,13.0186498 C24.8931921,13.3059771 24.3987302,13.6869674 23.9008006,14.1618335 L23.6515486,14.4070906 L22.6962291,15.3772982 L21.7192361,14.4277486 C20.8813677,13.6073851 20.2017941,13.0852607 19.6886693,12.8625926 C19.1717098,12.6382604 18.7756082,12.5274892 18.5083333,12.5274892 C17.9603268,12.5274892 17.4621261,12.6099834 17.0129299,12.7744022 C16.567434,12.9374664 16.1497773,13.2063038 15.763142,13.5786767 C15.3709924,13.9800861 15.0684517,14.4338971 14.8547881,14.9410014 C14.6416449,15.4468705 14.5351852,15.9757124 14.5351852,16.5288961 C14.5351852,17.0820798 14.6416449,17.6109217 14.8547881,18.1167908 C15.0325843,18.5387681 15.271886,18.9195167 15.5731242,19.2596509 L16.2211805,19.9424824 L18.1813875,22.0725035 L19.9286238,23.983604 L22.2928173,26.6020426 C22.3347055,26.6476651 22.369697,26.6855186 22.3977123,26.7155279 C22.4537915,26.7619571 22.5032648,26.7897387 22.5448411,26.801004 C22.5988653,26.8156422 22.6426507,26.8225108 22.675,26.8225108 C22.6946861,26.8225108 22.7380713,26.8153269 22.7994825,26.8000738 C22.8464038,26.7884196 22.8973812,26.7609862 22.9347819,26.7321875 C23.4289642,26.1921169 23.9327478,25.6465994 24.4461328,25.0956348 L27.0282139,22.3340905 L29.4599597,19.7275723 C29.5462484,19.6387779 29.5827357,19.6049074 29.586858,19.6079034 C29.9790076,19.206494 30.2815483,18.7526829 30.4952119,18.2455787 C30.7083551,17.7397096 30.8148148,17.2108676 30.8148148,16.657684 C30.8148148,16.1045003 30.7083551,15.5756584 30.4952119,15.0697893 C30.2818565,14.5634165 29.9799331,14.1164131 29.5886971,13.7277175 C29.1715239,13.3132533 28.7388856,13.0100178 28.2908667,12.8167465 C27.8442471,12.6240788 27.3493041,12.5274892 26.8046296,12.5274892 Z" transform="translate(-13 -11)"/>
</svg>
