<svg xmlns="http://www.w3.org/2000/svg" width="21" height="19" viewBox="0 0 21 19">
  <path fill="#83838A" d="M26.6296296,10.825 C27.3811802,10.825 28.0774076,10.9614375 28.7168986,11.234633 C29.3558492,11.5075977 29.9487276,11.9224511 30.4922754,12.475094 C31.0530039,13.0195202 31.474326,13.6442285 31.7551327,14.3480274 C32.0348716,15.0491498 32.175,15.7610624 32.175,16.482684 C32.175,17.2043056 32.0348716,17.9162182 31.7551327,18.6173406 C31.5096251,19.2326677 31.1567352,19.7921724 30.6971874,20.2951594 L29.4330662,21.6344688 C28.8521029,22.2525227 28.228258,22.9216959 27.5615363,23.6419837 L25.6042639,25.7531928 L23.8640807,27.6089946 C23.6746687,27.7971767 23.4603259,27.9391439 23.2220365,28.0338408 C22.985653,28.1277802 22.7446159,28.175 22.5,28.175 C22.2429032,28.175 21.9981668,28.1277214 21.7670726,28.0331828 C21.5354568,27.9384309 21.324818,27.7966667 21.1303084,27.603156 L18.6955934,24.9420217 L16.2183836,22.221951 L14.5062897,20.3600768 C13.9464433,19.8038658 13.5256702,19.1768046 13.2450707,18.4798612 C12.9651662,17.7846439 12.825,17.072539 12.825,16.344697 C12.825,15.6168549 12.9651662,14.9047501 13.2450707,14.2095327 C13.5256702,13.5125894 13.9464433,12.8855282 14.5062897,12.3293171 C15.0423727,11.7967152 15.6348263,11.4117347 16.2827409,11.1759211 C16.9256771,10.9419194 17.6095143,10.825 18.3333333,10.825 C19.0969819,10.825 19.8547766,11.0684826 20.6041515,11.5520952 C21.1896928,11.929977 21.7373192,12.3477314 22.2469531,12.8053173 L22.497,13.039 L22.6767101,12.8645987 C22.984566,12.5758684 23.3119365,12.302785 23.6587898,12.0453553 L24.0121362,11.7931437 L24.3784642,11.5513694 C25.1396814,11.0683707 25.8906815,10.825 26.6296296,10.825 Z M26.6296296,12.3524892 C26.2455761,12.3524892 25.7707113,12.5145736 25.2088082,12.8436498 C24.7181921,13.1309771 24.2237302,13.5119674 23.7258006,13.9868335 L23.4765486,14.2320906 L22.5212291,15.2022982 L21.5442361,14.2527486 C20.7063677,13.4323851 20.0267941,12.9102607 19.5136693,12.6875926 C18.9967098,12.4632604 18.6006082,12.3524892 18.3333333,12.3524892 C17.7853268,12.3524892 17.2871261,12.4349834 16.8379299,12.5994022 C16.392434,12.7624664 15.9747773,13.0313038 15.588142,13.4036767 C15.1959924,13.8050861 14.8934517,14.2588971 14.6797881,14.7660014 C14.4666449,15.2718705 14.3601852,15.8007124 14.3601852,16.3538961 C14.3601852,16.9070798 14.4666449,17.4359217 14.6797881,17.9417908 C14.8575843,18.3637681 15.096886,18.7445167 15.3981242,19.0846509 L16.0461805,19.7674824 L18.0063875,21.8975035 L19.7536238,23.808604 L22.1178173,26.4270426 C22.1597055,26.4726651 22.194697,26.5105186 22.2227123,26.5405279 C22.2787915,26.5869571 22.3282648,26.6147387 22.3698411,26.626004 C22.4238653,26.6406422 22.4676507,26.6475108 22.5,26.6475108 C22.5196861,26.6475108 22.5630713,26.6403269 22.6244825,26.6250738 C22.6714038,26.6134196 22.7223812,26.5859862 22.7597819,26.5571875 C23.2539642,26.0171169 23.7577478,25.4715994 24.2711328,24.9206348 L26.8532139,22.1590905 L29.2849597,19.5525723 C29.3712484,19.4637779 29.4077357,19.4299074 29.411858,19.4329034 C29.8040076,19.031494 30.1065483,18.5776829 30.3202119,18.0705787 C30.5333551,17.5647096 30.6398148,17.0358676 30.6398148,16.482684 C30.6398148,15.9295003 30.5333551,15.4006584 30.3202119,14.8947893 C30.1068565,14.3884165 29.8049331,13.9414131 29.4136971,13.5527175 C28.9965239,13.1382533 28.5638856,12.8350178 28.1158667,12.6417465 C27.6692471,12.4490788 27.1743041,12.3524892 26.6296296,12.3524892 Z" transform="translate(-12 -10)"/>
</svg>
