<svg xmlns="http://www.w3.org/2000/svg" width="20" height="18" viewBox="0 0 20 18">
  <path fill="#FFF" d="M26.8046296,11 C27.5561802,11 28.2524076,11.1364375 28.8918986,11.409633 C29.5308492,11.6825977 30.1237276,12.0974511 30.6672754,12.650094 C31.2280039,13.1945202 31.649326,13.8192285 31.9301327,14.5230274 C32.2098716,15.2241498 32.35,15.9360624 32.35,16.657684 C32.35,17.3793056 32.2098716,18.0912182 31.9301327,18.7923406 C31.6846251,19.4076677 31.3317352,19.9671724 30.8721874,20.4701594 L29.6080662,21.8094688 C29.0271029,22.4275227 28.403258,23.0966959 27.7365363,23.8169837 L25.7792639,25.9281928 L24.0390807,27.7839946 C23.8496687,27.9721767 23.6353259,28.1141439 23.3970365,28.2088408 C23.160653,28.3027802 22.9196159,28.35 22.675,28.35 C22.4179032,28.35 22.1731668,28.3027214 21.9420726,28.2081828 C21.7104568,28.1134309 21.499818,27.9716667 21.3053084,27.778156 L18.8705934,25.1170217 L16.3933836,22.396951 L14.6812897,20.5350768 C14.1214433,19.9788658 13.7006702,19.3518046 13.4200707,18.6548612 C13.1401662,17.9596439 13,17.247539 13,16.519697 C13,15.7918549 13.1401662,15.0797501 13.4200707,14.3845327 C13.7006702,13.6875894 14.1214433,13.0605282 14.6812897,12.5043171 C15.2173727,11.9717152 15.8098263,11.5867347 16.4577409,11.3509211 C17.1006771,11.1169194 17.7845143,11 18.5083333,11 C19.2719819,11 20.0297766,11.2434826 20.7791515,11.7270952 C21.3646928,12.104977 21.9123192,12.5227314 22.4219531,12.9803173 L22.672,13.214 L22.8517101,13.0395987 C23.159566,12.7508684 23.4869365,12.477785 23.8337898,12.2203553 L24.1871362,11.9681437 L24.5534642,11.7263694 C25.3146814,11.2433707 26.0656815,11 26.8046296,11 Z" transform="translate(-13 -11)"/>
</svg>
