<svg xmlns="http://www.w3.org/2000/svg" width="21" height="21" viewBox="0 0 21 21">
  <path fill="#38393F" d="M1200.53127,328.647323 C1202.17859,328.566966 1203.63841,328.191966 1204.84377,326.986607 C1206.04913,325.781249 1206.42413,324.321425 1206.50449,322.674102 C1206.58485,321.254457 1206.57145,319.848206 1206.57145,318.428561 C1206.57145,317.008917 1206.58485,315.602665 1206.50449,314.18302 C1206.42413,312.535697 1206.04913,311.075874 1204.84377,309.870515 C1203.63841,308.665157 1202.17859,308.290156 1200.53127,308.209799 C1199.39555,308.145513 1198.26841,308.141228 1197.13612,308.141998 L1196.28573,308.142835 C1194.86608,308.142835 1193.45983,308.129442 1192.04019,308.209799 C1190.39286,308.290156 1188.93304,308.665157 1187.72768,309.870515 C1186.52232,311.075874 1186.14732,312.535697 1186.06696,314.18302 C1186.01875,315.034807 1186.00429,315.881772 1186.00043,316.729702 L1186.00043,320.12742 C1186.00429,320.97535 1186.01875,321.822315 1186.06696,322.674102 C1186.14732,324.321425 1186.52232,325.781249 1187.72768,326.986607 C1188.93304,328.191966 1190.39286,328.566966 1192.04019,328.647323 C1193.45983,328.727681 1194.86608,328.714288 1196.28573,328.714288 C1197.70537,328.714288 1199.11162,328.727681 1200.53127,328.647323 Z M1196.53629,326.86696 L1196.28573,326.866071 C1194.78572,326.866071 1191.57144,326.986607 1190.21876,326.450892 C1189.75,326.263392 1189.40179,326.035713 1189.04018,325.674106 C1188.67857,325.312498 1188.4509,324.964283 1188.2634,324.495533 C1187.72768,323.142853 1187.84822,319.928563 1187.84822,318.428561 C1187.84822,316.928559 1187.72768,313.71427 1188.2634,312.36159 C1188.4509,311.892839 1188.67857,311.544624 1189.04018,311.183017 C1189.40179,310.821409 1189.75,310.59373 1190.21876,310.40623 C1191.57144,309.870515 1194.78572,309.991051 1196.28573,309.991051 C1197.78573,309.991051 1201.00002,309.870515 1202.3527,310.40623 C1202.82145,310.59373 1203.16966,310.821409 1203.53127,311.183017 C1203.89288,311.544624 1204.12056,311.892839 1204.30806,312.36159 C1204.84377,313.71427 1204.72324,316.928559 1204.72324,318.428561 C1204.72324,319.928563 1204.84377,323.142853 1204.30806,324.495533 C1204.12056,324.964283 1203.89288,325.312498 1203.53127,325.674106 C1203.16966,326.035713 1202.82145,326.263392 1202.3527,326.450892 C1201.07121,326.958412 1198.11892,326.876941 1196.53629,326.86696 Z M1201.7768,314.169628 C1202.45984,314.169628 1203.00895,313.62052 1203.00895,312.937483 C1203.00895,312.254447 1202.45984,311.705339 1201.7768,311.705339 C1201.09377,311.705339 1200.54466,312.254447 1200.54466,312.937483 C1200.54466,313.62052 1201.09377,314.169628 1201.7768,314.169628 Z M1196.28573,323.705353 C1199.20537,323.705353 1201.56252,321.348208 1201.56252,318.428561 C1201.56252,315.508915 1199.20537,313.151769 1196.28573,313.151769 C1193.36608,313.151769 1191.00893,315.508915 1191.00893,318.428561 C1191.00893,321.348208 1193.36608,323.705353 1196.28573,323.705353 Z M1196.28573,321.857137 C1194.39733,321.857137 1192.85715,320.316956 1192.85715,318.428561 C1192.85715,316.540166 1194.39733,314.999986 1196.28573,314.999986 C1198.17412,314.999986 1199.7143,316.540166 1199.7143,318.428561 C1199.7143,320.316956 1198.17412,321.857137 1196.28573,321.857137 Z" transform="translate(-1186 -308)"/>
</svg>
