<svg xmlns="http://www.w3.org/2000/svg" width="20" height="19" viewBox="0 0 20 19">
  <path fill="#1B1B24" d="M1347.75,20.25 C1349.95294,20.25 1351.84769,21.0351167 1353.40629,22.5937122 C1354.96488,24.1523078 1355.75,26.0470561 1355.75,28.25 C1355.75,29.825293 1355.33411,31.2611678 1354.50629,32.5469576 L1354.3226,32.8201829 L1354.196,32.992 L1357.92466,36.7027261 C1358.07146,36.8642083 1358.16991,37.050974 1358.21729,37.2553979 L1358.24321,37.4119076 L1358.25,37.546875 C1358.25,37.8662629 1358.13874,38.155529 1357.89102,38.4246575 C1357.65553,38.6387438 1357.36626,38.75 1357.04688,38.75 C1356.76762,38.75 1356.51432,38.6646379 1356.3056,38.4981977 L1356.20504,38.4082409 L1352.493,34.696 L1352.32018,34.8226023 C1351.14619,35.6459099 1349.84214,36.1142853 1348.41656,36.2245488 L1348.08542,36.2436357 L1347.75,36.25 C1345.54706,36.25 1343.65231,35.4648833 1342.09371,33.9062878 C1340.53512,32.3476922 1339.75,30.4529439 1339.75,28.25 C1339.75,26.0470561 1340.53512,24.1523078 1342.09371,22.5937122 C1343.65231,21.0351167 1345.54706,20.25 1347.75,20.25 Z M1347.75,22.65625 C1346.98273,22.65625 1346.26097,22.79941 1345.58368,23.0845725 C1344.91312,23.3719529 1344.31845,23.7753742 1343.79691,24.2969128 C1343.2771,24.8167255 1342.88128,25.4089695 1342.60243,26.0875495 C1342.30488,26.7659627 1342.15625,27.4853111 1342.15625,28.25 C1342.15625,29.0146889 1342.30488,29.7340373 1342.60704,30.4233218 C1342.88128,31.0910305 1343.2771,31.6832745 1343.79691,32.2030872 C1344.31845,32.7246258 1344.91312,33.1280471 1345.58075,33.4141823 C1346.26097,33.70059 1346.98273,33.84375 1347.75,33.84375 C1348.51727,33.84375 1349.23903,33.70059 1349.91632,33.4154275 C1350.58688,33.1280471 1351.18155,32.7246258 1351.70309,32.2030872 C1352.22463,31.6815486 1352.62805,31.0868758 1352.91418,30.4192527 C1353.20059,29.7390345 1353.34375,29.0172695 1353.34375,28.25 C1353.34375,27.4827305 1353.20059,26.7609655 1352.91543,26.0836784 C1352.62805,25.4131242 1352.22463,24.8184514 1351.70309,24.2969128 C1351.18155,23.7753742 1350.58688,23.3719529 1349.91925,23.0858177 C1349.23903,22.79941 1348.51727,22.65625 1347.75,22.65625 Z" transform="translate(-1339 -20)"/>
</svg>
