<svg xmlns="http://www.w3.org/2000/svg" width="23" height="18" viewBox="0 0 23 18">
  <path fill="#38393F" d="M1258.9375,327 C1262.84375,327 1265.97656,325.664062 1268.33594,322.992188 C1270.69531,320.320312 1271.875,317.34375 1271.875,314.0625 L1271.875,314.0625 L1271.875,313.5 C1272.8125,312.8125 1273.5625,312.03125 1274.125,311.15625 C1273.34375,311.53125 1272.46875,311.765625 1271.5,311.859375 C1272.53125,311.265625 1273.20312,310.421875 1273.51562,309.328125 C1272.51562,309.921875 1271.54688,310.296875 1270.60938,310.453125 C1269.70312,309.484375 1268.60938,309 1267.32812,309 C1266.04688,309 1264.96875,309.4375 1264.09375,310.3125 C1263.21875,311.1875 1262.78125,312.265625 1262.78125,313.546875 C1262.78125,314.015625 1262.8125,314.359375 1262.875,314.578125 C1259.0625,314.390625 1255.95312,312.8125 1253.54688,309.84375 C1253.14062,310.5625 1252.9375,311.3125 1252.9375,312.09375 C1252.9375,313.75 1253.60938,315.015625 1254.95312,315.890625 C1254.26562,315.890625 1253.57812,315.703125 1252.89062,315.328125 L1252.89062,315.328125 L1252.89062,315.375 C1252.89062,316.46875 1253.24219,317.429688 1253.94531,318.257812 C1254.64844,319.085938 1255.51562,319.609375 1256.54688,319.828125 C1256.04688,319.953125 1255.64062,320.015625 1255.32812,320.015625 C1255.14062,320.015625 1254.85938,319.984375 1254.48438,319.921875 C1254.76562,320.828125 1255.29688,321.570312 1256.07812,322.148438 C1256.85938,322.726562 1257.73438,323.03125 1258.70312,323.0625 C1257.04688,324.375 1255.17188,325.03125 1253.07812,325.03125 C1252.85938,325.03125 1252.5,325 1252,324.9375 C1254.125,326.3125 1256.4375,327 1258.9375,327 Z" transform="translate(-1252 -309)"/>
</svg>
