<svg id="Layer_1" data-name="Layer 1" xmlns="http://www.w3.org/2000/svg" viewBox="0 0 563.19 73.67"><defs><style>.cls-1{fill:#42306a;}</style></defs><title>Country Life Simba Art File</title><path class="cls-1" d="M560.47,3.08c-7.11.12-14,.12-20.62.12s-13,0-19-.12V4.92c5.13.46,6.75,3.81,6.75,11.32v41c0,7.5-1.62,10.85-6.75,11.31v1.85c7.21-.12,14.14-.23,20.89-.23s13.15.12,19.27.23l1.17-16.16L560.74,54c-2.88,9.12-6.39,12.12-13.24,12.12-6.21,0-8.19-2.42-8.19-9.12V38.64h8c5,0,7.65,2.31,8.55,8h1.44V26.17h-1.44c-.27,5.31-3.24,8.08-8.82,8.08h-7.75v-27h9.28c6.12,0,9.28,3.12,10.45,10.51h1.44Z"/><path class="cls-1" d="M518.15,3.08c-6.75.12-13.42.12-20.08.12s-13.06,0-19.54-.12V4.92c5.13.46,6.75,3.81,6.75,11.32v41c0,7.5-1.62,10.85-6.75,11.31v1.85c3.87-.12,7.92-.23,12.16-.23s8.56.12,13.06.23V68.54c-5.13-.46-6.75-3.81-6.75-11.31V38.64h8c5,0,7.65,2.31,8.56,8H515V26.17h-1.44c-.18,5.2-3.15,8.08-8.83,8.08H497v-27h9.64c5.76,0,8.92,3.35,10.09,10.51h1.44Z"/><path class="cls-1" d="M469.34,57.23v-41c0-7.5,1.62-10.85,6.75-11.32V3.08c-4.14.23-8.38.35-12.61.35s-8.38-.12-12.61-.35V4.92c5.13.46,6.75,3.81,6.75,11.32v41c0,7.5-1.62,10.85-6.75,11.31v1.85c4.23-.23,8.38-.35,12.61-.35s8.46.12,12.61.35V68.54c-5.13-.46-6.75-3.81-6.75-11.31"/><path class="cls-1" d="M425.66,57.23v-41c0-7.5,1.62-10.85,6.75-11.32V3.08c-4.14.12-8.38.12-12.61.12s-8.38,0-12.61-.12V4.92c5.13.46,6.75,3.81,6.75,11.32v41c0,7.5-1.62,10.85-6.75,11.31v1.85c6.21-.12,12.7-.23,19.45-.23s13.78.12,21.07.23l1.44-17.32-1.35-.46c-3,8.77-8,13.51-14.14,13.51s-8-2.42-8-8.89"/><path class="cls-1" d="M364.08,57.23V34.71l12.88-23c2.34-4.16,4.5-6.47,8.29-6.81V3.08c-2.79.12-5.67.23-8.74.23-2.52,0-5.22-.12-8-.23V4.92q4.59.52,4.59,4.5c0,1.73-1.62,4.39-4.05,8.78l-7,12.7-9.19-17.43a13.08,13.08,0,0,1-1.71-5.08c0-1.85,1.17-2.89,3.6-3.46V3.08q-5.67.35-11.62.35c-4,0-7.92-.12-12-.35V4.92c2.79.23,5.22,2.54,7.56,7l13.69,25.75V57.23c0,7.5-1.62,10.85-6.75,11.31v1.85c4.23-.23,8.37-.35,12.61-.35s8.46.12,12.61.35V68.54c-5.13-.46-6.75-3.81-6.75-11.31"/><path class="cls-1" d="M330.94,55.38c-3.42-7-6.21-14.55-11.35-20.09,6.84-2.08,10.63-7.62,10.63-15.47,0-9.58-6-16.74-15.94-16.74H284.65V4.92c5.13.46,6.75,3.81,6.75,11.32v41c0,7.5-1.62,10.85-6.75,11.31v1.85c4.23-.23,8.38-.35,12.61-.35s8.46.12,12.61.35V68.54c-5.13-.46-6.75-3.81-6.75-11.31V38.06h2.43c4.23,0,7.38,4.62,11.35,13.51,3.24,7.27,5.31,14.2,9.28,18.82h13.6V68.54C337.51,68,334.81,63.35,330.94,55.38ZM306.08,33.79h-3V7.35h3.33c7.56,0,11.26,4.16,11.26,12.93C317.7,30,314,33.79,306.08,33.79Z"/><path class="cls-1" d="M251.87,7.35V57.23c0,7.5-1.62,10.85-6.75,11.31v1.85c4.23-.23,8.37-.35,12.61-.35s8.38.12,12.52.35V68.54c-5.13-.46-6.75-3.81-6.75-11.31V7.35h3.78c8.19,0,12.52,3.46,13.15,11h1.44V1h-1.44c-.36,1.39-1.71,2.08-4.14,2.08H239.08c-2.43,0-3.78-.69-4.14-2.08H233.5V18.32h1.44c.63-7.5,5-11,13.15-11Z"/><path class="cls-1" d="M182.8,57.23V16.82l39.26,54.27h1.53V16.24c0-7.5,1.62-10.85,6.75-11.32V3.08q-4.19.35-8.38.35c-2.88,0-5.67-.12-8.46-.35V4.92c5.13.46,6.75,3.81,6.75,11.32V48L187.66,3.08q-3.92.35-7.83.35c-2.61,0-5.22-.12-7.93-.35V4.92c3,1,5.58,3.46,7.56,7.16V57.23c0,7.5-1.62,10.85-6.75,11.31v1.85c2.79-.23,5.58-.35,8.46-.35s5.58.12,8.38.35V68.54c-5.13-.46-6.75-3.81-6.75-11.31"/><path class="cls-1" d="M125.16,50.07V16.24c0-7.5,1.62-10.85,6.75-11.32V3.08c-4.14.23-8.38.35-12.61.35s-8.38-.12-12.61-.35V4.92c5.13.46,6.75,3.81,6.75,11.32V49c0,15.47,5.49,23,16.84,23,7.2,0,13.33-3.23,18.82-10v8.43c3.06-.23,6.12-.35,9.28-.35s6.12.12,9.19.35V68.54c-5.13-.46-6.75-3.81-6.75-11.31v-41c0-7.5,1.62-10.85,6.75-11.32V3.08c-4.14.23-8.38.35-12.61.35s-8.38-.12-12.61-.35V4.92c5.13.46,6.75,3.81,6.75,11.32V56.65c-4.5,6.58-9.46,9.81-14.5,9.81-6.93,0-9.46-5.2-9.46-16.39"/><path class="cls-1" d="M80.49,1.46c-16.84,0-28.19,14.09-28.19,35.21S63.65,72,80.49,72s28.1-14.2,28.1-35.33S97.33,1.46,80.49,1.46ZM80.4,68.2c-10.09,0-15.58-10.74-15.58-31.52S70.32,5,80.4,5,96.07,15.89,96.07,36.68,90.49,68.2,80.4,68.2Z"/><path class="cls-1" d="M50.78,57.69l-1.08-1.5c-4.68,6-10.45,9.12-16.48,9.12-11.53,0-19.27-11.55-19.27-30.94,0-17.67,7.29-29.21,16.75-29.21,8.28,0,15.94,8.43,17.65,21.36h1.44V2.5H48.34C48.16,4.58,47,5.85,45.28,5.85c-2.79,0-8.29-4.39-16-4.39-8.92,0-16.75,5.2-21.16,12.93S1.61,29.17,1.61,37.83C1.61,49.38,5.39,59.19,12,65.42A23.18,23.18,0,0,0,28.44,72C37.18,72,45,66.93,50.78,57.69"/></svg>